<svg xmlns="http://www.w3.org/2000/svg" width="48" height="48" viewBox="0 0 48 48">
  <defs>
    <style>
      .cls-1 {
        fill: #1b8f4d;
      }

      .cls-1, .cls-2, .cls-3 {
        fill-rule: evenodd;
      }

      .cls-2, .cls-3 {
        fill: #fff;
      }

      .cls-2 {
        opacity: 0.35;
      }
    </style>
  </defs>
  <path id="paper" class="cls-1" d="M259.109,378.584c-21.1,18.831-55.287,20.447-84.182,20.447H146.259c-28.9,0-63.083-1.616-84.182-20.447-24.8-22.13-29.625-60.165-29.625-94.447V256.562c0-33.967,4.543-70.375,28.944-92.487,21.182-19.195,55.656-20.522,84.863-20.522h28.668c29.208,0,63.682,1.327,84.863,20.522,24.4,22.112,28.944,58.52,28.944,92.487v27.575C288.734,318.419,283.9,356.454,259.109,378.584ZM-7.23,383.738c-15.819,14.156-41.452,15.2-63.118,15.2H-91.466c-21.666,0-47.3-1.048-63.118-15.2-18.591-16.635-21.842-45.227-21.842-71V292.012c0-25.535,3.037-52.9,21.331-69.526,15.882-14.429,41.73-15.427,63.629-15.427h21.119c21.9,0,47.747,1,63.628,15.427,18.294,16.622,21.7,43.991,21.7,69.526V312.74C14.982,338.511,11.361,367.1-7.23,383.738ZM-91.838,180.744c-7.91,7.068-20.726,7.591-31.559,7.591h-10.56c-10.832,0-23.649-.523-31.558-7.591-9.3-8.306-10.921-22.582-10.921-35.449V134.946c0-12.749,1.518-26.414,10.665-34.714,7.941-7.2,20.865-7.7,31.814-7.7h10.56c10.949,0,23.873.5,31.814,7.7,9.147,8.3,10.85,21.965,10.85,34.714v10.349C-80.733,158.162-82.543,172.438-91.838,180.744Zm98.781,1.305c-6.306,5.635-16.524,5.83-25.16,5.83h-8.419c-8.636,0-18.854-.195-25.16-5.83-7.411-6.622-8.707-18-8.707-28.262v-8.251c0-10.164,1.21-21.058,8.5-27.675,6.331-5.744,16.634-5.808,25.364-5.808h8.419c8.73,0,19.033.064,25.364,5.808,7.293,6.617,8.317,17.511,8.317,27.675v8.251C15.463,164.046,14.353,175.427,6.943,182.049ZM-112.3,66.677c-5.988,5.35-15.555,5.131-23.755,5.131h-7.994c-8.2,0-18.037.219-24.025-5.131-7.036-6.288-7.862-17.229-7.862-26.97V31.873c0-9.651.745-19.861,7.669-26.143,6.011-5.454,15.929-5.784,24.218-5.784h7.994c8.288,0,17.937.33,23.948,5.784,6.925,6.283,7.9,16.492,7.9,26.143v7.835C-104.206,49.448-105.26,60.39-112.3,66.677Zm84.831-7.894C-32.74,63.491-41.287,63.9-48.51,63.9h-7.042c-7.224,0-15.771-.4-21.046-5.112C-82.8,53.251-84,43.742-84,35.172V28.278c0-8.492,1.136-17.594,7.236-23.122,5.3-4.8,13.914-5.131,21.216-5.131h7.042c7.3,0,15.92.332,21.216,5.131,6.1,5.528,7.236,14.63,7.236,23.122v6.894C-20.059,43.742-21.266,53.251-27.465,58.783ZM42.28,44.1c-3.947,3.527-10.343,3.788-15.749,3.788h-5.27c-5.406,0-11.8-.261-15.749-3.788C0.874,39.955.063,32.831,0.063,26.41V21.245c0-6.362.758-13.182,5.322-17.323C9.348,0.327,15.8.078,21.262,0.078h5.27c5.464,0,11.914.249,15.876,3.844,4.565,4.142,5.415,10.961,5.415,17.323V26.41C47.823,32.831,46.919,39.955,42.28,44.1ZM99.886,33.358c-3,2.672-7.792,2.562-11.9,2.562h-4c-4.108,0-9.035.11-12.035-2.562-3.525-3.14-3.939-8.6-3.939-13.467V15.978c0-4.819.373-9.917,3.842-13.055C74.861,0.2,79.83.035,83.982,0.035h4c4.152,0,8.985.165,12,2.888,3.469,3.137,3.956,8.235,3.956,13.055V19.89C103.938,24.754,103.41,30.218,99.886,33.358Zm44.482,36.309c-2.666,2.375-6.926,2.277-10.577,2.277h-3.559c-3.652,0-8.031.1-10.7-2.277-3.133-2.791-3.5-7.647-3.5-11.97V54.219c0-4.284.332-8.815,3.415-11.6,2.676-2.421,7.092-2.567,10.783-2.567h3.559c3.69,0,7.986.147,10.663,2.567,3.083,2.788,3.516,7.32,3.516,11.6V57.7C147.97,62.02,147.5,66.876,144.368,69.667ZM129,0h6a5,5,0,0,1,5,5v6a5,5,0,0,1-5,5h-6a5,5,0,0,1-5-5V5A5,5,0,0,1,129,0Zm30,24h6a3,3,0,0,1,3,3v6a3,3,0,0,1-3,3h-6a3,3,0,0,1-3-3V27A3,3,0,0,1,159,24Zm2-24h6a1,1,0,0,1,1,1V7a1,1,0,0,1-1,1h-6a1,1,0,0,1-1-1V1A1,1,0,0,1,161,0Z"/>
  <path id="asterisk" class="cls-2" d="M36.792,26.079H29.61l5.314,5.314a0.337,0.337,0,0,1,0,.477l-3.085,3.085a0.337,0.337,0,0,1-.477,0L12.128,15.721a0.338,0.338,0,0,1,0-.477l3.085-3.085a0.337,0.337,0,0,1,.477,0l5.231,5.178V10.27a0.337,0.337,0,0,1,.337-0.337h4.416a0.337,0.337,0,0,1,.337.337v7.244l5.32-5.32a0.337,0.337,0,0,1,.477,0l3.085,3.085a0.337,0.337,0,0,1,0,.477L29.61,21.041h7.182a0.337,0.337,0,0,1,.337.337v4.363A0.337,0.337,0,0,1,36.792,26.079Z"/>
  <path id="arrow" class="cls-3" d="M25.675,37.036H21.258a0.337,0.337,0,0,1-.337-0.337V30.168l-5.267,5.2a0.338,0.338,0,0,1-.477,0l-3.46-3.46a0.337,0.337,0,0,1,0-.477l5.447-5.35h-6.8a0.337,0.337,0,0,1-.337-0.337V21.325a0.337,0.337,0,0,1,.337-0.337H25.675a0.337,0.337,0,0,1,.337.337V36.7A0.337,0.337,0,0,1,25.675,37.036Z"/>
</svg>
